<?xml version="1.0" encoding="utf-8"?>
<!-- Generator: Adobe Illustrator 22.0.0, SVG Export Plug-In . SVG Version: 6.00 Build 0)  -->
<svg version="1.1" id="Capa_1" xmlns="http://www.w3.org/2000/svg" xmlns:xlink="http://www.w3.org/1999/xlink" x="0px" y="0px"
	 viewBox="0 0 512 512" enable-background="new 0 0 512 512" xml:space="preserve">
<g>
	<g>
		<path fill="#FFFFFF" d="M310.6,380.2c-13.7-9.2-130.7-88.9-162.2-144.6l-1.7-3.1l-3.6-0.1c-27.2-1.1-48.3,14.6-57.3,22.7
			c-3.7-3.7-7.5-7.6-11.3-11.5l-4.6-4.7l-4.5,4.7c-17.8,18.5-25.7,35.7-23.4,51.2c1.8,12.6,10.4,23.5,24.9,31.7
			c2.6,1.5,32.7,22,65.5,48.1c-5.7,5.8-26.2,19.1-33.7,24.4c-8.4,5.9-43.3,37.6-43.3,37.6l22.5,5.3l7.8,15.2
			c0,0,10.7-26.2,22.5-39.2s32.3-23.3,32.3-23.3s-11.1,15.8-19.1,31.2c-7.9,15.4-10,42-10,42l13.8-4.4l9.5,20.7
			c0,0,2.5-29.3,8.4-48.3c4.7-15.4,16.3-30,20.6-35.2c41.5,36.6,84.9,80.7,93.6,89.6c5.2,6,12,10.4,20.8,12.4c3.2,0.7,6.4,1,9.5,1
			c18,0,35-11.2,46-30.8c12.8-22.8,16.4-57.9-5.8-80.9C321.6,385.7,315.8,382.1,310.6,380.2z M134.5,360.1
			c-30-23.6-57.5-42.4-61.4-44.7c-11.1-6.3-17.3-13.8-18.6-22.5c-1.5-10.2,3.8-22.2,15.6-35.7c29.4,30.1,54.5,53.9,75.8,72.9
			C136.2,345.8,134.5,354.3,134.5,360.1z M153.1,319.6c-16.9-15.1-36.3-33.3-58.4-55.4c7.5-6.6,24-18.6,44.4-19.1
			c10.7,17.5,28.4,36.7,48.3,55.3C177.1,301.4,164.1,306,153.1,319.6z M166.1,386.1c1.1-8.1,3.6-19.3,9.3-30.9
			c37.4,30.4,58.6,41.6,67.9,45.5c-1.4,10.7-3.9,35.4,0.4,57.9C223.5,438.8,194,410.3,166.1,386.1z M322.5,466.9
			c-7.9,14.1-23,27.7-41.7,23.6c-32.1-7.1-28.4-69.4-24.3-92.8l1-5.9l-5.9-1.4c-0.3-0.1-20.2-5.7-69.5-45.9
			c9.3-10.8,24.1-15.6,35.4-17.7c27.8,23.1,55.6,43.1,72.1,54.7c-0.5,0.3-1,0.5-1.4,0.8c-19.1,10.8-27.1,42.2-22.9,57.2
			c4.9,17.7,16.7,29,29.1,28.8c5.3-0.2,18.2-3.2,22.9-26.8l0.7-3.7l-2.8-2.4C297.4,420,287.7,411,283,406.4
			c3-5.7,6.8-10.7,11.5-13.4c7.1-4,15.2-1.4,24.1,7.8C336.3,419.3,333,448,322.5,466.9z M304.1,442.4c-2.2,8-5.9,12.9-10.1,13
			c-0.1,0-0.1,0-0.2,0c-5.3,0-12.7-6.7-16.2-19.5c-1.1-4.1-0.8-10.1,0.7-16.4C283.5,424.4,291.7,431.9,304.1,442.4z"/>
		<path fill="#FFFFFF" d="M100,144.5l-20.1,64.3c0,0,82,8,150.4,29.3c68.3,21.4,140.3,61.5,140.3,61.5l20.4-65.4
			c0,0-61.3-61.8-134.3-84.6C183.7,126.8,100,144.5,100,144.5z"/>
		<path fill="#FFFFFF" d="M512,235.1l-23.9-25.1l2.3-7.6c0,0,21-38.7-32-31.6c-2.8,0.5-4.4,1.4-5.3,2.5L295.5,8.1L0,73.3l81.3,72.6
			l4.4-14c0,0,93.3-19.8,174.7,5.6c81.4,25.4,149.8,94.3,149.8,94.3l-7.6,24.4l61-11.8c-10.2,32.5-21.9,70-25.5,81.6l-17.4-5.4
			L408.1,361l28.1-8.8l20.7,24l12.6-40.4l-18.8-5.9l27.6-88.4L512,235.1z M477,226.1c-2.1,6.7-9.3,10.5-16,8.4
			c-6.7-2.1-10.5-9.3-8.4-16c2.1-6.7,9.3-10.5,16-8.4C475.3,212.1,479.1,219.3,477,226.1z M465.1,185.9c6.7-2,18-4,15,5.6
			c-0.3,0.9-1.1,3.7-2.4,7.6L465.1,185.9z"/>
	</g>
</g>
</svg>
