<?xml version="1.0" encoding="utf-8"?>
<!-- Generator: Adobe Illustrator 22.0.0, SVG Export Plug-In . SVG Version: 6.00 Build 0)  -->
<svg version="1.1" id="rocket" xmlns="http://www.w3.org/2000/svg" xmlns:xlink="http://www.w3.org/1999/xlink" x="0px" y="0px"
	 viewBox="0 0 32 95.7" enable-background="new 0 0 32 95.7" xml:space="preserve">
<g>
	<g>
		<path fill="#FFFFFF" d="M15.9,0c0,0-7.9,4.3-7.9,16.6h7.9h7.9C23.8,4.3,15.9,0,15.9,0z"/>
		<rect x="8.1" y="60" fill="#FFFFFF" width="15.7" height="7.9"/>
		<polygon fill="#FFFFFF" points="19.4,68.9 16,68.9 12.6,68.9 11.2,73.8 16,73.8 20.9,73.8 		"/>
		<path fill="#FFFFFF" d="M0,53.8c0-1.2,0.5-2.4,1.4-3.2l6.7-6.5V59L0,66.8V53.8z"/>
		<path fill="#FFFFFF" d="M16,95.7L16,95.7L16,95.7L16,95.7c-3.5-3.6-5.4-14.4-3.7-18.3c1.3-2.9,3.7-2.9,3.7-2.9s2.4,0,3.7,2.9
			C21.4,81.3,19.4,92.1,16,95.7L16,95.7z M16,87.4c2.4-2.1,3.8-8.5,2.6-10.7C17.6,75,16,75,16,75s-1.7,0-2.6,1.7
			C12.2,79,13.5,85.3,16,87.4L16,87.4L16,87.4L16,87.4L16,87.4z"/>
		<path fill="#FFFFFF" d="M16,81.6c1.2-1,1.9-4.2,1.3-5.3c-0.4-0.8-1.3-0.8-1.3-0.8s-0.8,0-1.3,0.8C14.1,77.5,14.8,80.6,16,81.6
			L16,81.6L16,81.6L16,81.6L16,81.6z"/>
		<polygon fill="#FFFFFF" points="8.1,23.8 8.1,32.8 0,32.8 		"/>
		<path fill="#FFFFFF" d="M31.8,53.8c0-1.2-0.5-2.4-1.4-3.2l-6.7-6.5V59l8.1,7.8V53.8z"/>
		<polygon fill="#FFFFFF" points="23.8,23.8 23.8,33 32,33 		"/>
		<path fill="#FFFFFF" d="M15.9,22.4c-1.9,0-3.4,1.5-3.4,3.4s1.5,3.4,3.4,3.4c1.9,0,3.4-1.5,3.4-3.4S17.8,22.4,15.9,22.4z"/>
		<path fill="#FFFFFF" d="M15.9,33.4c-1.9,0-3.4,1.5-3.4,3.4c0,1.9,1.5,3.4,3.4,3.4c1.9,0,3.4-1.5,3.4-3.4
			C19.3,35,17.8,33.4,15.9,33.4z"/>
		<path fill="#FFFFFF" d="M23.8,59H8.1V17.7h15.7V59z M15.9,21.3c-2.5,0-4.5,2-4.5,4.5s2,4.5,4.5,4.5c2.5,0,4.5-2,4.5-4.5
			S18.4,21.3,15.9,21.3z M15.9,32.3c-2.5,0-4.5,2-4.5,4.5c0,2.5,2,4.5,4.5,4.5c2.5,0,4.5-2,4.5-4.5C20.4,34.4,18.4,32.3,15.9,32.3z
			 M15.9,43.4c-2.5,0-4.5,2-4.5,4.5c0,2.5,2,4.5,4.5,4.5c2.5,0,4.5-2,4.5-4.5C20.4,45.4,18.4,43.4,15.9,43.4z"/>
		<path fill="#FFFFFF" d="M15.9,44.5c-1.9,0-3.4,1.5-3.4,3.4c0,1.9,1.5,3.4,3.4,3.4c1.9,0,3.4-1.5,3.4-3.4
			C19.3,46,17.8,44.5,15.9,44.5z"/>
	</g>
</g>
</svg>
