<?xml version="1.0" encoding="utf-8"?>
<!-- Generator: Adobe Illustrator 22.0.0, SVG Export Plug-In . SVG Version: 6.00 Build 0)  -->
<svg version="1.1" id="Layer_1" xmlns="http://www.w3.org/2000/svg" xmlns:xlink="http://www.w3.org/1999/xlink" x="0px" y="0px"
	 viewBox="0 0 25 25" style="enable-background:new 0 0 25 25;" xml:space="preserve">
<style type="text/css">
	.st0{fill:#0D0D0F;}
	.st1{fill:#200132;}
	.st2{fill:#595959;}
</style>
<g>
	<g>
		<g>
			<g>
				<g>
					<g>
						<polygon class="st0" points="10.2,3.1 9.7,5.6 12.2,5 						"/>
						<polygon class="st0" points="14,-0.9 12.6,6.5 20,5 						"/>
						<polygon class="st1" points="10.2,1.7 15.1,0.7 14.1,5.6 						"/>
						<polygon class="st2" points="12.7,-1.7 12.2,0.8 14.6,0.3 						"/>
					</g>
					<g>
						<polygon class="st0" points="22.9,-0.2 23.4,-2.7 20.9,-2.2 						"/>
						<polygon class="st0" points="19.1,3.8 20.5,-3.6 13.1,-2.2 						"/>
						<polygon class="st1" points="22.9,1.1 18,2.1 19,-2.8 						"/>
						<polygon class="st2" points="20.4,4.5 20.9,2.1 18.5,2.6 						"/>
					</g>
					<g>
						<g>
							<polygon class="st0" points="12.7,10.2 12.4,11.9 14.1,11.5 							"/>
							<polygon class="st0" points="15.4,7.4 14.4,12.6 19.6,11.5 							"/>
							<polygon class="st1" points="12.7,9.2 16.1,8.5 15.5,11.9 							"/>
							<polygon class="st2" points="14.4,6.8 14.1,8.6 15.8,8.2 							"/>
						</g>
						<g>
							<polygon class="st0" points="21.6,7.9 22,6.2 20.2,6.5 							"/>
							<polygon class="st0" points="18.9,10.7 20,5.5 14.8,6.5 							"/>
							<polygon class="st1" points="21.6,8.8 18.2,9.5 18.9,6.1 							"/>
							<polygon class="st2" points="19.9,11.2 20.2,9.5 18.5,9.8 							"/>
						</g>
					</g>
					<g>
						<g>
							<polygon class="st0" points="30.4,2.1 30.7,0.4 29,0.8 							"/>
							<polygon class="st0" points="27.7,4.9 28.7,-0.3 23.5,0.8 							"/>
							<polygon class="st1" points="30.4,3.1 26.9,3.8 27.6,0.4 							"/>
							<polygon class="st2" points="28.6,5.5 29,3.7 27.3,4.1 							"/>
						</g>
						<g>
							<polygon class="st0" points="21.5,4.4 21.1,6.1 22.9,5.8 							"/>
							<polygon class="st0" points="24.1,1.6 23.1,6.8 28.3,5.8 							"/>
							<polygon class="st1" points="21.5,3.5 24.9,2.8 24.2,6.2 							"/>
							<polygon class="st2" points="23.2,1.1 22.9,2.8 24.6,2.5 							"/>
						</g>
					</g>
					<g>
						<g>
							<polygon class="st0" points="20.4,11.3 20,13 21.7,12.7 							"/>
							<polygon class="st0" points="23,8.5 22,13.7 27.2,12.7 							"/>
							<polygon class="st1" points="20.4,10.3 23.8,9.7 23.1,13.1 							"/>
							<polygon class="st2" points="22.1,8 21.7,9.7 23.5,9.3 							"/>
						</g>
						<g>
							<polygon class="st0" points="29.3,9 29.6,7.3 27.9,7.6 							"/>
							<polygon class="st0" points="26.6,11.8 27.6,6.6 22.4,7.6 							"/>
							<polygon class="st1" points="29.3,10 25.8,10.6 26.5,7.2 							"/>
							<polygon class="st2" points="27.5,12.3 27.9,10.6 26.2,10.9 							"/>
						</g>
					</g>
				</g>
			</g>
		</g>
	</g>
</g>
</svg>
