<?xml version="1.0" encoding="utf-8"?>
<!-- Generator: Adobe Illustrator 22.0.0, SVG Export Plug-In . SVG Version: 6.00 Build 0)  -->
<svg version="1.1" id="dark" xmlns="http://www.w3.org/2000/svg" xmlns:xlink="http://www.w3.org/1999/xlink" x="0px" y="0px"
	 viewBox="0 0 25 25" enable-background="new 0 0 25 25" xml:space="preserve">
<g>
	<g>
		<g>
			<g>
				<g>
					<g>
						<polygon fill="#0D0D0F" points="10.2,3.1 9.7,5.6 12.2,5 						"/>
						<polygon fill="#0D0D0F" points="14,-0.9 12.6,6.5 20,5 						"/>
					</g>
					<g>
						<polygon fill="#0D0D0F" points="22.9,-0.2 23.4,-2.7 20.9,-2.2 						"/>
						<polygon fill="#0D0D0F" points="19.1,3.8 20.5,-3.6 13.1,-2.2 						"/>
					</g>
					<g>
						<g>
							<polygon fill="#0D0D0F" points="12.7,10.2 12.4,11.9 14.1,11.5 							"/>
							<polygon fill="#0D0D0F" points="15.4,7.4 14.4,12.6 19.6,11.5 							"/>
						</g>
						<g>
							<polygon fill="#0D0D0F" points="21.6,7.9 22,6.2 20.2,6.5 							"/>
							<polygon fill="#0D0D0F" points="18.9,10.7 20,5.5 14.8,6.5 							"/>
						</g>
					</g>
					<g>
						<g>
							<polygon fill="#0D0D0F" points="30.4,2.1 30.7,0.4 29,0.8 							"/>
							<polygon fill="#0D0D0F" points="27.7,4.9 28.7,-0.3 23.5,0.8 							"/>
						</g>
						<g>
							<polygon fill="#0D0D0F" points="21.5,4.4 21.1,6.1 22.9,5.8 							"/>
							<polygon fill="#0D0D0F" points="24.1,1.6 23.1,6.8 28.3,5.8 							"/>
						</g>
					</g>
					<g>
						<g>
							<polygon fill="#0D0D0F" points="20.4,11.3 20,13 21.7,12.7 							"/>
							<polygon fill="#0D0D0F" points="23,8.5 22,13.7 27.2,12.7 							"/>
						</g>
						<g>
							<polygon fill="#0D0D0F" points="29.3,9 29.6,7.3 27.9,7.6 							"/>
							<polygon fill="#0D0D0F" points="26.6,11.8 27.6,6.6 22.4,7.6 							"/>
						</g>
					</g>
				</g>
			</g>
		</g>
	</g>
</g>
</svg>
