<?xml version="1.0" encoding="utf-8"?>
<!-- Generator: Adobe Illustrator 22.0.0, SVG Export Plug-In . SVG Version: 6.00 Build 0)  -->
<svg version="1.1" id="Layer_1" xmlns="http://www.w3.org/2000/svg" xmlns:xlink="http://www.w3.org/1999/xlink" x="0px" y="0px"
	 viewBox="0 0 25 25" enable-background="new 0 0 25 25" xml:space="preserve">
<g>
	<g>
		<g>
			<defs>
				<rect id="SVGID_1_" width="25" height="25"/>
			</defs>
			<clipPath id="SVGID_2_">
				<use xlink:href="#SVGID_1_"  overflow="visible"/>
			</clipPath>
			<g clip-path="url(#SVGID_2_)">
				<g>
					<polygon fill="#595959" points="10.2,3 9.7,5.5 12.2,5 					"/>
					<polygon fill="#595959" points="14,-0.9 12.6,6.5 20,5 					"/>
					<polygon fill="#0D0D0F" points="10.2,1.7 15.1,0.7 14.1,5.6 					"/>
					<polygon fill="#200132" points="12.7,-1.7 12.2,0.8 14.6,0.3 					"/>
				</g>
				<g>
					<polygon fill="#595959" points="22.9,-0.2 23.4,-2.7 20.9,-2.2 					"/>
					<polygon fill="#595959" points="19.1,3.8 20.5,-3.6 13.1,-2.2 					"/>
					<polygon fill="#0D0D0F" points="22.9,1.1 18,2.1 19,-2.8 					"/>
					<polygon fill="#200132" points="20.4,4.5 20.9,2.1 18.5,2.6 					"/>
				</g>
				<g>
					<g>
						<polygon fill="#595959" points="12.7,10.2 12.4,11.9 14.1,11.5 						"/>
						<polygon fill="#595959" points="15.4,7.4 14.4,12.6 19.6,11.5 						"/>
						<polygon fill="#0D0D0F" points="12.7,9.2 16.1,8.5 15.5,11.9 						"/>
						<polygon fill="#200132" points="14.4,6.8 14.1,8.6 15.8,8.2 						"/>
					</g>
					<g>
						<polygon fill="#595959" points="21.6,7.9 22,6.2 20.2,6.5 						"/>
						<polygon fill="#595959" points="18.9,10.7 20,5.5 14.8,6.5 						"/>
						<polygon fill="#0D0D0F" points="21.6,8.8 18.2,9.5 18.9,6.1 						"/>
						<polygon fill="#200132" points="19.9,11.2 20.2,9.5 18.5,9.8 						"/>
					</g>
				</g>
				<g>
					<g>
						<polygon fill="#595959" points="30.4,2.1 30.7,0.4 29,0.8 						"/>
						<polygon fill="#595959" points="27.7,4.9 28.7,-0.3 23.5,0.8 						"/>
						<polygon fill="#0D0D0F" points="30.4,3.1 26.9,3.8 27.6,0.4 						"/>
						<polygon fill="#200132" points="28.6,5.5 29,3.7 27.3,4.1 						"/>
					</g>
					<g>
						<polygon fill="#595959" points="21.5,4.4 21.1,6.1 22.9,5.8 						"/>
						<polygon fill="#595959" points="24.1,1.6 23.1,6.8 28.3,5.8 						"/>
						<polygon fill="#0D0D0F" points="21.5,3.5 24.9,2.8 24.2,6.2 						"/>
						<polygon fill="#200132" points="23.2,1.1 22.9,2.8 24.6,2.5 						"/>
					</g>
				</g>
				<g>
					<g>
						<polygon fill="#595959" points="20.4,11.3 20,13 21.7,12.7 						"/>
						<polygon fill="#595959" points="23,8.5 22,13.7 27.2,12.7 						"/>
						<polygon fill="#0D0D0F" points="20.4,10.3 23.8,9.7 23.1,13.1 						"/>
						<polygon fill="#200132" points="22.1,8 21.7,9.7 23.5,9.3 						"/>
					</g>
					<g>
						<polygon fill="#595959" points="29.3,9 29.6,7.3 27.9,7.6 						"/>
						<polygon fill="#595959" points="26.6,11.8 27.6,6.6 22.4,7.6 						"/>
						<polygon fill="#0D0D0F" points="29.3,10 25.8,10.6 26.5,7.2 						"/>
						<polygon fill="#200132" points="27.5,12.3 27.9,10.6 26.2,10.9 						"/>
					</g>
				</g>
			</g>
			<g clip-path="url(#SVGID_2_)">
				<g>
					<polygon fill="#595959" points="-9,21.1 -9.5,23.5 -7,23.1 					"/>
					<polygon fill="#595959" points="-5.2,17.1 -6.6,24.5 0.8,23.1 					"/>
					<polygon fill="#0D0D0F" points="-9,19.7 -4.1,18.8 -5.1,23.6 					"/>
					<polygon fill="#200132" points="-6.5,16.4 -7,18.8 -4.5,18.3 					"/>
				</g>
				<g>
					<polygon fill="#595959" points="3.7,17.8 4.2,15.4 1.7,15.9 					"/>
					<polygon fill="#595959" points="-0.1,21.8 1.4,14.4 -6,15.9 					"/>
					<polygon fill="#0D0D0F" points="3.7,19.2 -1.2,20.2 -0.2,15.3 					"/>
					<polygon fill="#200132" points="1.3,22.6 1.7,20.1 -0.7,20.6 					"/>
				</g>
				<g>
					<g>
						<polygon fill="#595959" points="-6.5,28.2 -6.8,29.9 -5.1,29.6 						"/>
						<polygon fill="#595959" points="-3.8,25.4 -4.8,30.6 0.4,29.6 						"/>
						<polygon fill="#0D0D0F" points="-6.5,27.3 -3.1,26.6 -3.7,30 						"/>
						<polygon fill="#200132" points="-4.8,24.9 -5.1,26.6 -3.4,26.3 						"/>
					</g>
					<g>
						<polygon fill="#595959" points="2.4,25.9 2.8,24.2 1,24.6 						"/>
						<polygon fill="#595959" points="-0.3,28.7 0.8,23.5 -4.4,24.6 						"/>
						<polygon fill="#0D0D0F" points="2.4,26.9 -1,27.6 -0.3,24.1 						"/>
						<polygon fill="#200132" points="0.7,29.3 1,27.5 -0.7,27.9 						"/>
					</g>
				</g>
				<g>
					<g>
						<polygon fill="#595959" points="11.2,20.2 11.5,18.5 9.8,18.8 						"/>
						<polygon fill="#595959" points="8.5,23 9.5,17.8 4.3,18.8 						"/>
						<polygon fill="#0D0D0F" points="11.2,21.2 7.8,21.8 8.4,18.4 						"/>
						<polygon fill="#200132" points="9.5,23.5 9.8,21.8 8.1,22.1 						"/>
					</g>
					<g>
						<polygon fill="#595959" points="2.3,22.5 1.9,24.2 3.7,23.9 						"/>
						<polygon fill="#595959" points="5,19.7 3.9,24.9 9.1,23.9 						"/>
						<polygon fill="#0D0D0F" points="2.3,21.5 5.7,20.9 5,24.3 						"/>
						<polygon fill="#200132" points="4,19.2 3.7,20.9 5.4,20.5 						"/>
					</g>
				</g>
				<g>
					<g>
						<polygon fill="#595959" points="1.2,29.3 0.8,31.1 2.6,30.7 						"/>
						<polygon fill="#595959" points="3.8,26.5 2.8,31.7 8,30.7 						"/>
						<polygon fill="#0D0D0F" points="1.2,28.4 4.6,27.7 3.9,31.1 						"/>
						<polygon fill="#200132" points="2.9,26 2.6,27.7 4.3,27.4 						"/>
					</g>
					<g>
						<polygon fill="#595959" points="10.1,27.1 10.4,25.3 8.7,25.7 						"/>
						<polygon fill="#595959" points="7.4,29.8 8.4,24.7 3.2,25.7 						"/>
						<polygon fill="#0D0D0F" points="10.1,28 6.7,28.7 7.3,25.3 						"/>
						<polygon fill="#200132" points="8.3,30.4 8.7,28.7 7,29 						"/>
					</g>
				</g>
			</g>
		</g>
	</g>
</g>
</svg>
