<svg version="1" xmlns="http://www.w3.org/2000/svg" width="789.333" height="789.333" viewBox="0 0 592.000000 592.000000"><path d="M219.5.7c-4.3.7-5.8 2.4-10.1 11.8l-3.9 8.4-75.1.3-75 .3-3.7 2.5c-2 1.3-4.6 4.3-5.9 6.5l-2.3 4V205c0 160.5.1 170.7 1.7 173.7 1 1.8 3.4 4.5 5.5 6l3.6 2.8 18.7.3 18.8.3-5.3 10.2c-9.4 17.9-15.4 39.1-18.5 64.8-1.4 10.8-1.3 11.1 6.3 22.4 21 31.1 52.4 57.5 91.2 76.5 39.8 19.5 77.3 28.5 124 29.7 25.4.6 44-1 67.5-5.7 70.1-14.1 132.3-53.4 164.8-104.4l5.2-8.2-1.5-11.9c-3.6-27.3-10.8-50.1-21.4-68.3L501 388h16.9c9.6 0 18.2-.5 19.8-1.1 4-1.5 7.3-4.8 9.4-9.4 1.8-3.8 1.9-10.8 1.9-173 0-161.9-.1-169.2-1.9-173-1-2.2-2.8-4.8-3.9-5.8-5.2-4.7-4.1-4.6-106-4.7h-96.3l-5.7-2.4c-16.9-7-45.1-14.3-66.7-17.1-11-1.4-41.2-1.9-49-.8zm-17.9 31c-.7 2.1-2.1 7.1-3.1 11l-1.7 7.3-64.2.2-64.1.3v24.2c0 13.4.1 75.8.3 138.8L69 328l48.3.2 48.2.3-9 4.9c-4.9 2.7-13.1 7.5-18.1 10.8l-9.1 5.8H49V193.5c0-137.8.2-157 1.5-159.5 3.2-6.1.1-5.9 79.7-6h72.7l-1.3 3.7zm338-.3l3.4 3.4V350h-79.2l-10.8-6.7c-6-3.8-14.2-8.6-18.2-10.8l-7.3-4 48.1-.3 48.1-.2.5-138.3c.3-76 .3-138.5.1-139-.2-.4-31.3-.7-69-.7h-68.5l-5-4.5c-4.5-4-11.7-9.1-21.8-15.3l-3.5-2.2h179.7l3.4 3.4zM195 117.2c0 5.7 3.1 35.6 4 38.3.8 2.7 10 51.8 10 53.7 0 1.9-5.6.6-8.2-1.9l-2.8-2.7v11.3l6.5.3 6.6.3 4.2 10C224 247 234.9 264 247 276c12.5 12.6 26.4 21 42.7 26l7.2 2.2 7.4-2.1c28.7-7.8 51.4-27.8 68.4-60.1 2.7-5.2 6.5-13.2 8.3-17.8l3.4-8.2h4.8c4.5 0 4.8-.2 4.8-2.6s-.1-2.4-2.2-1c-2.5 1.8-5.8 2.1-5.8.6 0-.5 3.3-14.3 7.4-30.7 6.6-26.4 11.9-53 12.8-63.3l.3-3.5 49.8-.3 49.7-.2v189h-65c-54.6 0-64.9.2-64.4 1.4.3.7-1.2 3.3-3.3 5.7-12.7 14.6-28.9 24.5-49.8 30.2-7 1.9-10.5 2.2-27.5 2.1-16.7 0-20.6-.3-27-2.1-20.5-5.7-36.5-14.7-47.9-26.8-6.4-6.9-6.9-7.9-4.8-9.2.6-.4-28.3-1-64.3-1.3l-65.5-.5-.3-94.3L86 115h109v2.2z"/><path d="M405.5 149.2c.9 29.5.9 32.1 0 39.5l-.8 7.3H493v-64h-88.1l.6 17.2zm45.3 3l.3 9.8H470v10h-18.9l-.3 9.7-.3 9.8h-10l-.3-9.8-.3-9.7H421v-10h19v-9.3c0-5.2.3-9.7.7-10.1.4-.4 2.8-.6 5.3-.4l4.5.3.3 9.7zM405 210v6h88v-12h-88v6z"/></svg>